<?xml version="1.0" encoding="utf-8"?>
<!-- Generator: Adobe Illustrator 24.1.0, SVG Export Plug-In . SVG Version: 6.00 Build 0)  -->
<svg version="1.1" id="Layer_1" xmlns="http://www.w3.org/2000/svg" xmlns:xlink="http://www.w3.org/1999/xlink" x="0px" y="0px"
	 width="345px" height="60px" viewBox="0 0 345 60" style="enable-background:new 0 0 345 60;" xml:space="preserve">
<style type="text/css">
	.st0{clip-path:url(#SVGID_2_);}
	.st1{opacity:0.5;fill-rule:evenodd;clip-rule:evenodd;fill:url(#SVGID_3_);enable-background:new    ;}
	.st2{opacity:0.65;fill-rule:evenodd;clip-rule:evenodd;fill:url(#SVGID_4_);enable-background:new    ;}
	.st3{opacity:0.3;fill-rule:evenodd;clip-rule:evenodd;fill:url(#SVGID_5_);enable-background:new    ;}
	.st4{opacity:0.5;fill-rule:evenodd;clip-rule:evenodd;fill:url(#SVGID_6_);enable-background:new    ;}
</style>
<g>
	<g>
		<defs>
			<rect id="SVGID_1_" width="345" height="60"/>
		</defs>
		<clipPath id="SVGID_2_">
			<use xlink:href="#SVGID_1_"  style="overflow:visible;"/>
		</clipPath>
		<g class="st0">
			<g>
				<g>
					
						<linearGradient id="SVGID_3_" gradientUnits="userSpaceOnUse" x1="112.5108" y1="5865.4077" x2="393.7795" y2="5865.4077" gradientTransform="matrix(1 -0.006 -0.027 1.015 52.3484 -5971.8477)">
						<stop  offset="0" style="stop-color:#00A0EE;stop-opacity:0.4"/>
						<stop  offset="1" style="stop-color:#0B4B8C;stop-opacity:0.8"/>
					</linearGradient>
					<path class="st1" d="M111.564-75.118C47.394-59.236,6.792-27.731,6.033-1.832c-0.736,25.093,35.891,45.619,94.644,46.8
						c80.253,1.622,177.7-31.944,186.889-77.868C297.298-81.546,201.378-97.346,111.564-75.118z M89.608,15.569
						c-36.588,1.443-61.481-10-60.775-25.626c0.72-15.953,27.975-34.206,66.536-41.55c46.682-8.891,89.718,1.356,86.48,24.135
						C178.699-5.337,133.544,13.837,89.608,15.569z"/>
					
						<linearGradient id="SVGID_4_" gradientUnits="userSpaceOnUse" x1="116.6302" y1="5865.2417" x2="371.0638" y2="5865.2417" gradientTransform="matrix(1 -0.006 -0.027 1.015 52.3484 -5971.8477)">
						<stop  offset="0" style="stop-color:#00A0EE;stop-opacity:0.4"/>
						<stop  offset="0.999" style="stop-color:#0C50A0;stop-opacity:0.65"/>
					</linearGradient>
					<path class="st2" d="M108.886-70.837C49.434-56.754,10.97-27.712,10.199-3.6C9.455,19.812,44.252,38.508,99.094,38.831
						C172.027,39.261,257.4,8.269,264.965-32.32C272.924-75.019,189.565-89.949,108.886-70.837z M89.608,15.569
						c-36.588,1.443-61.481-10-60.775-25.626c0.72-15.953,27.975-34.206,66.536-41.55c46.682-8.891,89.718,1.356,86.48,24.135
						C178.699-5.337,133.544,13.837,89.608,15.569z"/>
				</g>
				<g>
					
						<linearGradient id="SVGID_5_" gradientUnits="userSpaceOnUse" x1="481.8174" y1="5856.7383" x2="107.1153" y2="5856.7383" gradientTransform="matrix(1 -0.006 -0.027 1.015 52.3484 -5971.8477)">
						<stop  offset="0" style="stop-color:#E30000;stop-opacity:0.8"/>
						<stop  offset="0.194" style="stop-color:#E70B00;stop-opacity:0.785"/>
						<stop  offset="0.49" style="stop-color:#F32900;stop-opacity:0.744"/>
						<stop  offset="0.738" style="stop-color:#FF4A00;stop-opacity:0.7"/>
						<stop  offset="0.807" style="stop-color:#FC3F00;stop-opacity:0.715"/>
						<stop  offset="0.912" style="stop-color:#F32100;stop-opacity:0.756"/>
						<stop  offset="1" style="stop-color:#EA0000;stop-opacity:0.8"/>
					</linearGradient>
					<path class="st3" d="M120.644-97.245C44.376-73.978,0.533-34.323,0.685-2.962c0.147,30.613,42.123,57.153,113.617,61.108
						C231.514,62.651,366.75,19.3,376.205-48.471C386.176-119.954,238.52-133.205,120.644-97.245z M109.015,47.561
						C44.823,46.91,4.182,25.3,4.172-1.456C4.164-28.919,46.958-62.545,115.515-79.884c95.599-24.18,199.853-8.741,192.545,42.481
						C301.089,11.462,196.766,48.452,109.015,47.561z"/>
					
						<linearGradient id="SVGID_6_" gradientUnits="userSpaceOnUse" x1="460.0382" y1="5857.1743" x2="107.1855" y2="5857.1743" gradientTransform="matrix(1 -0.006 -0.027 1.015 52.3484 -5971.8477)">
						<stop  offset="0" style="stop-color:#D40012"/>
						<stop  offset="0.194" style="stop-color:#DA0B0F;stop-opacity:0.955"/>
						<stop  offset="0.49" style="stop-color:#EC2908;stop-opacity:0.833"/>
						<stop  offset="0.738" style="stop-color:#FF4A00;stop-opacity:0.7"/>
						<stop  offset="0.807" style="stop-color:#FC3F00;stop-opacity:0.715"/>
						<stop  offset="0.912" style="stop-color:#F32100;stop-opacity:0.756"/>
						<stop  offset="1" style="stop-color:#EA0000;stop-opacity:0.8"/>
					</linearGradient>
					<path class="st4" d="M117.148-94.356C43.581-72.1,0.623-33.564,0.756-3.03c0.13,29.857,41.383,55.13,110.733,57.842
						c102.187,4,235.118-40.135,243.029-103.3C362.812-114.7,228.02-127.888,117.148-94.356z M109.015,47.561
						C44.823,46.91,4.182,25.3,4.172-1.456C4.164-28.919,46.958-62.545,115.515-79.884c95.599-24.18,199.853-8.741,192.545,42.481
						C301.089,11.462,196.766,48.452,109.015,47.561z"/>
				</g>
			</g>
		</g>
	</g>
</g>
</svg>
