<svg xmlns="http://www.w3.org/2000/svg" xmlns:xlink="http://www.w3.org/1999/xlink" width="170" height="30" viewBox="0 0 170 30">
  <defs>
    <style>
      .a {
        fill: url(#a);
      }

      .b {
        fill: #e6e6e6;
      }

      .c {
        fill: #666;
      }

      .d {
        fill: #d21400;
      }
    </style>
    <linearGradient id="a" x1="85" y1="29.5" x2="85" y2="0.5" gradientUnits="userSpaceOnUse">
      <stop offset="0" stop-color="#e6e1d2"/>
      <stop offset="0.7" stop-color="#fefefd"/>
      <stop offset="0.997" stop-color="#fcfbf8"/>
    </linearGradient>
  </defs>
  <g>
    <g>
      <rect class="a" x="0.5" y="0.5" width="169" height="29" rx="4.5"/>
      <path class="b" d="M165,1a4,4,0,0,1,4,4V25a4,4,0,0,1-4,4H5a4,4,0,0,1-4-4V5A4,4,0,0,1,5,1H165m0-1H5A5,5,0,0,0,0,5V25a5,5,0,0,0,5,5H165a5,5,0,0,0,5-5V5a5,5,0,0,0-5-5Z"/>
    </g>
    <g>
      <g>
        <path class="c" d="M14.226,19.454v-8.59h1.136v3.528h4.465V10.864h1.137v8.59H19.827V15.405H15.362v4.049Z"/>
        <path class="c" d="M26.782,18.687a3.917,3.917,0,0,1-1.128.7,3.274,3.274,0,0,1-1.163.2,2.262,2.262,0,0,1-1.576-.5,1.655,1.655,0,0,1-.551-1.281,1.706,1.706,0,0,1,.208-.834,1.73,1.73,0,0,1,.545-.607,2.577,2.577,0,0,1,.759-.346,7.743,7.743,0,0,1,.937-.158,9.563,9.563,0,0,0,1.881-.363c0-.145.006-.236.006-.276a1.162,1.162,0,0,0-.3-.908,1.766,1.766,0,0,0-1.2-.357,1.858,1.858,0,0,0-1.1.261,1.585,1.585,0,0,0-.525.922l-1.031-.14a2.549,2.549,0,0,1,.463-1.069,2.021,2.021,0,0,1,.931-.627,4.148,4.148,0,0,1,1.413-.22,3.734,3.734,0,0,1,1.294.187,1.712,1.712,0,0,1,.733.472,1.655,1.655,0,0,1,.328.718,5.939,5.939,0,0,1,.053.972v1.407a14.941,14.941,0,0,0,.067,1.86,2.341,2.341,0,0,0,.267.747h-1.1A2.243,2.243,0,0,1,26.782,18.687Zm-.088-2.356a7.725,7.725,0,0,1-1.722.4,4,4,0,0,0-.92.211.92.92,0,0,0-.416.343.93.93,0,0,0,.173,1.2,1.369,1.369,0,0,0,.934.282,2.172,2.172,0,0,0,1.084-.267,1.636,1.636,0,0,0,.7-.73,2.531,2.531,0,0,0,.17-1.054Z"/>
        <path class="c" d="M29.431,13.231h1.054v5.35h2.4v-5.35h1.054v5.35h2.409v-5.35H37.4v6.223H29.431Z"/>
        <path class="c" d="M39.022,13.231h1.055v4.747L43,13.231h1.137v6.223H43.083V14.737l-2.924,4.717H39.022Z"/>
        <path class="c" d="M49.065,13.231H50.12v2.59h2.924v-2.59H54.1v6.223H53.044v-2.76H50.12v2.76H49.065Z"/>
        <path class="c" d="M55.294,16.343a3.207,3.207,0,0,1,.961-2.561,2.894,2.894,0,0,1,1.957-.691,2.792,2.792,0,0,1,2.1.841,3.2,3.2,0,0,1,.814,2.323,4.121,4.121,0,0,1-.36,1.89,2.555,2.555,0,0,1-1.049,1.069,3.053,3.053,0,0,1-1.5.381,2.8,2.8,0,0,1-2.112-.838A3.343,3.343,0,0,1,55.294,16.343Zm1.084,0a2.655,2.655,0,0,0,.521,1.79,1.737,1.737,0,0,0,2.62,0,2.718,2.718,0,0,0,.521-1.822,2.572,2.572,0,0,0-.524-1.749,1.739,1.739,0,0,0-2.617,0A2.641,2.641,0,0,0,56.378,16.343Z"/>
        <path class="c" d="M62.366,13.231H64.8a4.391,4.391,0,0,1,1.333.15,1.6,1.6,0,0,1,.75.548,1.5,1.5,0,0,1,.313.955,1.568,1.568,0,0,1-.184.776,1.508,1.508,0,0,1-.554.554,1.458,1.458,0,0,1,.73.548,1.583,1.583,0,0,1,.29.952,1.676,1.676,0,0,1-.633,1.312,2.761,2.761,0,0,1-1.67.428H62.366Zm1.055,2.62h1.125a4.011,4.011,0,0,0,.926-.071.966.966,0,0,0,.451-.284.723.723,0,0,0,.2-.513.714.714,0,0,0-.349-.685,2.633,2.633,0,0,0-1.192-.194h-1.16Zm0,2.736H64.81a2.53,2.53,0,0,0,1.23-.208.814.814,0,0,0,.352-.718.9.9,0,0,0-.194-.554.841.841,0,0,0-.5-.322,5.213,5.213,0,0,0-1-.067H63.421Z"/>
        <path class="c" d="M68.208,16.343a3.207,3.207,0,0,1,.961-2.561,2.894,2.894,0,0,1,1.957-.691,2.792,2.792,0,0,1,2.1.841,3.2,3.2,0,0,1,.814,2.323,4.121,4.121,0,0,1-.36,1.89,2.549,2.549,0,0,1-1.049,1.069,3.053,3.053,0,0,1-1.5.381,2.8,2.8,0,0,1-2.112-.838A3.348,3.348,0,0,1,68.208,16.343Zm1.084,0a2.655,2.655,0,0,0,.521,1.79,1.737,1.737,0,0,0,2.62,0,2.718,2.718,0,0,0,.521-1.822,2.572,2.572,0,0,0-.524-1.749,1.739,1.739,0,0,0-2.617,0A2.641,2.641,0,0,0,69.292,16.343Z"/>
        <path class="c" d="M79.335,17.175l1.037.135a2.687,2.687,0,0,1-.87,1.678,2.532,2.532,0,0,1-1.72.607,2.672,2.672,0,0,1-2.053-.835,3.388,3.388,0,0,1-.777-2.394,4.319,4.319,0,0,1,.334-1.763A2.332,2.332,0,0,1,76.3,13.469a3.015,3.015,0,0,1,1.485-.378,2.579,2.579,0,0,1,1.658.513,2.346,2.346,0,0,1,.826,1.456l-1.025.158a1.707,1.707,0,0,0-.518-.944,1.344,1.344,0,0,0-.9-.316,1.637,1.637,0,0,0-1.295.571,2.714,2.714,0,0,0-.5,1.808,2.8,2.8,0,0,0,.481,1.822,1.563,1.563,0,0,0,1.254.569,1.478,1.478,0,0,0,1.037-.381A1.892,1.892,0,0,0,79.335,17.175Z"/>
        <path class="c" d="M80.706,13.231h5.057V14.1h-2v5.35H82.71V14.1h-2Z"/>
        <path class="c" d="M86.771,13.231h1.054v4.747l2.924-4.747h1.137v6.223H90.831V14.737l-2.924,4.717H86.771Z"/>
        <path class="c" d="M96.813,13.231h2.432a4.391,4.391,0,0,1,1.333.15,1.6,1.6,0,0,1,.75.548,1.5,1.5,0,0,1,.314.955,1.568,1.568,0,0,1-.185.776,1.508,1.508,0,0,1-.554.554,1.458,1.458,0,0,1,.73.548,1.583,1.583,0,0,1,.29.952,1.676,1.676,0,0,1-.633,1.312,2.759,2.759,0,0,1-1.67.428H96.813Zm1.055,2.62h1.125a4.011,4.011,0,0,0,.926-.071.966.966,0,0,0,.451-.284.723.723,0,0,0,.2-.513.716.716,0,0,0-.348-.685,2.64,2.64,0,0,0-1.193-.194h-1.16Zm0,2.736h1.389a2.527,2.527,0,0,0,1.23-.208.814.814,0,0,0,.352-.718.9.9,0,0,0-.193-.554.841.841,0,0,0-.5-.322,5.213,5.213,0,0,0-1-.067H97.868Z"/>
      </g>
      <g>
        <path class="d" d="M106.41,20.454a8.083,8.083,0,0,0,.454-1.278c.31-1.242.327-2.953,1.2-3.907a1.977,1.977,0,0,1,.909-.559v-.036a2.842,2.842,0,0,1-2.109-2.917,3.253,3.253,0,0,1,1.182-2.683,4.559,4.559,0,0,1,2.8-.809,10.5,10.5,0,0,1,2.326.233V20.454h-1.927V15.412h-.382a1.45,1.45,0,0,0-1.163.486c-.581.721-.69,2.5-.908,3.494a4.492,4.492,0,0,1-.327,1.062Zm4.834-10.6a2.523,2.523,0,0,0-.6-.073c-1.254,0-1.8.937-1.8,2.036a1.944,1.944,0,0,0,1.98,2.124,3.24,3.24,0,0,0,.418-.018Z"/>
        <path d="M116.773,11.686v3.493h1.961V11.686h1.735v8.768h-1.735V16.816h-1.961v3.638H115.04V11.686Z"/>
        <path d="M127.58,11.686v7.328l.713.036-.081,3.781H126.9l-.081-2.377h-3.953l-.081,2.377h-1.313l-.081-3.781.6-.036a6.628,6.628,0,0,0,.649-1.819,14.165,14.165,0,0,0,.307-3.043V11.686Zm-3.111,2.484a15.448,15.448,0,0,1-.259,3.025,7.02,7.02,0,0,1-.551,1.783h2.22V13.2h-1.41Z"/>
        <path d="M130.771,16.583c.015,1.962.842,2.5,1.766,2.5a3.161,3.161,0,0,0,1.409-.324l.243,1.385a4.62,4.62,0,0,1-1.976.415c-2.026,0-3.128-1.638-3.128-4.357,0-2.9,1.264-4.664,2.949-4.664,1.654,0,2.5,1.675,2.5,4.016,0,.5-.033.792-.049,1.026Zm2.155-1.369c.015-1.4-.405-2.233-1.022-2.233-.745,0-1.085,1.207-1.118,2.233Z"/>
        <path d="M137.478,11.686v3.636h.21l1.669-3.636h1.831l-2.2,3.852c.924.252,1.377,1.315,1.62,2.485a19.01,19.01,0,0,0,.681,2.431h-1.733a13.511,13.511,0,0,1-.584-2.089c-.227-1.026-.6-1.675-1.362-1.675h-.128v3.764h-1.7V11.686Z"/>
        <path d="M146.29,20.273a2.84,2.84,0,0,1-1.328.289c-1.88,0-3.128-1.548-3.128-4.429,0-2.612,1.312-4.573,3.4-4.573a2.489,2.489,0,0,1,1.134.252l-.259,1.53a2.078,2.078,0,0,0-.842-.2c-1.119,0-1.7,1.35-1.7,2.953,0,1.8.648,2.881,1.7,2.881a1.59,1.59,0,0,0,.842-.2Z"/>
        <path d="M148.59,16.583c.015,1.962.843,2.5,1.766,2.5a3.169,3.169,0,0,0,1.41-.324l.243,1.385a4.625,4.625,0,0,1-1.977.415c-2.026,0-3.128-1.638-3.128-4.357,0-2.9,1.264-4.664,2.95-4.664,1.653,0,2.5,1.675,2.5,4.016,0,.5-.034.792-.049,1.026Zm2.155-1.369c.016-1.4-.405-2.233-1.021-2.233-.745,0-1.085,1.207-1.119,2.233Z"/>
        <path d="M155.61,20.6a1.154,1.154,0,0,1-1.127-1.224,1.168,1.168,0,0,1,1.145-1.261,1.148,1.148,0,0,1,1.145,1.261,1.126,1.126,0,0,1-1.145,1.224Zm-.8-3.835-.237-8.445h2.109l-.237,8.445Z"/>
      </g>
    </g>
  </g>
</svg>
