<svg xmlns="http://www.w3.org/2000/svg" xmlns:xlink="http://www.w3.org/1999/xlink" width="111.515" height="32" viewBox="0 0 111.515 32">
  <defs>
    <style>
      .a {
        fill: url(#a);
      }

      .b {
        fill: url(#b);
      }
    </style>
    <linearGradient id="a" x1="55.758" y1="32" x2="55.758" gradientUnits="userSpaceOnUse">
      <stop offset="0" stop-color="#a52300"/>
      <stop offset="0.998" stop-color="#e63718"/>
    </linearGradient>
    <linearGradient id="b" x1="55.758" y1="32" x2="55.758" gradientUnits="userSpaceOnUse">
      <stop offset="0" stop-color="#a52800"/>
      <stop offset="0.997" stop-color="#962300"/>
    </linearGradient>
  </defs>
  <g>
    <path class="a" d="M98.585,27H60.576l-4.818,5-4.819-5H12.93A12.965,12.965,0,0,1,0,14V13A12.965,12.965,0,0,1,12.93,0H98.585c7.141,0,12.93,6.82,12.93,14V13C111.515,20.18,105.726,27,98.585,27Z"/>
    <path class="b" d="M98.585.5c6.47,0,12.158,5.962,12.421,12.981-.263,7.057-5.951,13.019-12.421,13.019H60.363l-.147.153-4.458,4.626L51.3,26.653l-.147-.153H12.93A12.479,12.479,0,0,1,.5,14V13A12.479,12.479,0,0,1,12.93.5H98.585m0-.5H12.93A12.965,12.965,0,0,0,0,13v1A12.965,12.965,0,0,0,12.93,27H50.939l4.819,5,4.818-5H98.585c6.975,0,12.66-6.507,12.921-13.5C111.245,6.507,105.56,0,98.585,0Zm12.93,13c0,.167,0,.333-.009.5s.009.333.009.5V13Z"/>
  </g>
</svg>
