<svg xmlns="http://www.w3.org/2000/svg" xmlns:xlink="http://www.w3.org/1999/xlink" width="120" height="34" viewBox="0 0 120 34">
  <defs>
    <style>
      .a {
        fill: url(#a);
      }

      .b {
        fill: #1a78bb;
      }
    </style>
    <linearGradient id="a" x1="60" y1="33.85" x2="60" y2="0.15" gradientUnits="userSpaceOnUse">
      <stop offset="0" stop-color="#317fc1"/>
      <stop offset="0.689" stop-color="#5dbbf5"/>
      <stop offset="0.988" stop-color="#5fbcf7"/>
    </linearGradient>
  </defs>
  <g>
    <rect class="a" x="0.15" y="0.15" width="119.7" height="33.7" rx="4.85"/>
    <path class="b" d="M115,.3A4.7,4.7,0,0,1,119.7,5V29a4.7,4.7,0,0,1-4.7,4.7H5A4.7,4.7,0,0,1,.3,29V5A4.7,4.7,0,0,1,5,.3H115m0-.3H5A5,5,0,0,0,0,5V29a5,5,0,0,0,5,5H115a5,5,0,0,0,5-5V5a5,5,0,0,0-5-5Z"/>
  </g>
</svg>
