<svg xmlns="http://www.w3.org/2000/svg" xmlns:xlink="http://www.w3.org/1999/xlink" width="200" height="30" viewBox="0 0 200 30">
  <defs>
    <style>
      .a {
        fill: url(#a);
      }

      .b {
        fill: #f7931e;
      }

      .c {
        fill: #666;
      }
    </style>
    <linearGradient id="a" x1="100" y1="29.5" x2="100" y2="0.5" gradientUnits="userSpaceOnUse">
      <stop offset="0" stop-color="#e6e1d2"/>
      <stop offset="0.7" stop-color="#fefefd"/>
      <stop offset="0.997" stop-color="#fcfbf8"/>
    </linearGradient>
  </defs>
  <g>
    <g>
      <rect class="a" x="0.5" y="0.5" width="199" height="29" rx="4.5"/>
      <path class="b" d="M195,1a4,4,0,0,1,4,4V25a4,4,0,0,1-4,4H5a4,4,0,0,1-4-4V5A4,4,0,0,1,5,1H195m0-1H5A5,5,0,0,0,0,5V25a5,5,0,0,0,5,5H195a5,5,0,0,0,5-5V5a5,5,0,0,0-5-5Z"/>
    </g>
    <g>
      <path class="c" d="M23.144,19.454v-8.59h3.222a3.984,3.984,0,0,1,1.579.261,2.028,2.028,0,0,1,.932.8,2.111,2.111,0,0,1,.337,1.134,1.952,1.952,0,0,1-.3,1.037,2.133,2.133,0,0,1-.9.785,2.242,2.242,0,0,1,1.2.779,2.089,2.089,0,0,1,.419,1.3,2.51,2.51,0,0,1-.255,1.122,2.176,2.176,0,0,1-.63.8,2.64,2.64,0,0,1-.94.425,5.76,5.76,0,0,1-1.386.143Zm1.136-4.98h1.858a4.159,4.159,0,0,0,1.084-.1,1.2,1.2,0,0,0,.653-.428,1.235,1.235,0,0,0,.22-.75,1.389,1.389,0,0,0-.2-.753A1.041,1.041,0,0,0,27.3,12,4.9,4.9,0,0,0,26,11.878H24.28Zm0,3.966h2.139a4.833,4.833,0,0,0,.773-.041,1.847,1.847,0,0,0,.657-.234,1.25,1.25,0,0,0,.433-.477,1.489,1.489,0,0,0,.17-.724,1.428,1.428,0,0,0-.246-.835,1.3,1.3,0,0,0-.683-.5,4.218,4.218,0,0,0-1.256-.144H24.28Z"/>
      <path class="c" d="M35.24,17.175l1.037.135a2.687,2.687,0,0,1-.87,1.678,2.532,2.532,0,0,1-1.719.607,2.673,2.673,0,0,1-2.054-.835,3.388,3.388,0,0,1-.777-2.394,4.336,4.336,0,0,1,.334-1.763,2.332,2.332,0,0,1,1.017-1.134,3.015,3.015,0,0,1,1.485-.378,2.584,2.584,0,0,1,1.659.513,2.351,2.351,0,0,1,.826,1.456l-1.026.158a1.7,1.7,0,0,0-.518-.944,1.342,1.342,0,0,0-.9-.316,1.637,1.637,0,0,0-1.3.571,2.714,2.714,0,0,0-.5,1.808,2.8,2.8,0,0,0,.481,1.822,1.563,1.563,0,0,0,1.254.569,1.477,1.477,0,0,0,1.037-.381A1.892,1.892,0,0,0,35.24,17.175Z"/>
      <path class="c" d="M41.56,17.45l1.089.135a2.65,2.65,0,0,1-.955,1.482,3.233,3.233,0,0,1-3.946-.313,3.287,3.287,0,0,1-.8-2.358,3.44,3.44,0,0,1,.809-2.438,2.736,2.736,0,0,1,2.1-.867,2.663,2.663,0,0,1,2.04.849,3.38,3.38,0,0,1,.791,2.391c0,.063,0,.156-.006.281H38.038a2.4,2.4,0,0,0,.58,1.571,1.728,1.728,0,0,0,1.3.545,1.613,1.613,0,0,0,.99-.305A2.022,2.022,0,0,0,41.56,17.45Zm-3.463-1.7h3.474a2.11,2.11,0,0,0-.4-1.178,1.618,1.618,0,0,0-1.307-.609,1.675,1.675,0,0,0-1.221.486A1.922,1.922,0,0,0,38.1,15.745Z"/>
      <path class="c" d="M44.1,13.231h3.58V14.1H45.154v5.35H44.1Z"/>
      <path class="c" d="M48.884,13.231H53.22v5.356h.674v2.631h-.868V19.454h-4.9v1.764h-.867V18.587h.556Q48.932,17.075,48.884,13.231Zm.879.873a10.26,10.26,0,0,1-.938,4.483h3.346V14.1Z"/>
      <path class="c" d="M59.234,18.687a3.917,3.917,0,0,1-1.128.7,3.274,3.274,0,0,1-1.163.2,2.262,2.262,0,0,1-1.576-.5,1.655,1.655,0,0,1-.551-1.281,1.706,1.706,0,0,1,.208-.834,1.73,1.73,0,0,1,.545-.607,2.577,2.577,0,0,1,.759-.346,7.731,7.731,0,0,1,.938-.158,9.566,9.566,0,0,0,1.88-.363c0-.145.006-.236.006-.276a1.166,1.166,0,0,0-.3-.908,1.768,1.768,0,0,0-1.2-.357,1.858,1.858,0,0,0-1.1.261,1.59,1.59,0,0,0-.525.922L55,15.007a2.549,2.549,0,0,1,.463-1.069,2.02,2.02,0,0,1,.932-.627,4.142,4.142,0,0,1,1.412-.22,3.74,3.74,0,0,1,1.3.187,1.708,1.708,0,0,1,.732.472,1.655,1.655,0,0,1,.328.718,5.939,5.939,0,0,1,.053.972v1.407a14.941,14.941,0,0,0,.067,1.86,2.341,2.341,0,0,0,.267.747h-1.1A2.266,2.266,0,0,1,59.234,18.687Zm-.088-2.356a7.725,7.725,0,0,1-1.722.4,4.017,4.017,0,0,0-.92.211.926.926,0,0,0-.416.343.93.93,0,0,0,.173,1.2,1.37,1.37,0,0,0,.934.282,2.169,2.169,0,0,0,1.084-.267,1.644,1.644,0,0,0,.7-.73,2.55,2.55,0,0,0,.169-1.054Z"/>
      <path class="c" d="M65.427,13.231h2.431a4.391,4.391,0,0,1,1.333.15,1.6,1.6,0,0,1,.75.548,1.5,1.5,0,0,1,.314.955,1.568,1.568,0,0,1-.185.776,1.505,1.505,0,0,1-.553.554,1.451,1.451,0,0,1,.729.548,1.583,1.583,0,0,1,.29.952,1.676,1.676,0,0,1-.633,1.312,2.757,2.757,0,0,1-1.67.428H65.427Zm1.054,2.62h1.125a4.005,4.005,0,0,0,.926-.071.961.961,0,0,0,.451-.284.724.724,0,0,0,.2-.513.716.716,0,0,0-.349-.685,2.635,2.635,0,0,0-1.192-.194H66.481Zm0,2.736H67.87a2.532,2.532,0,0,0,1.231-.208.816.816,0,0,0,.351-.718.9.9,0,0,0-.193-.554.841.841,0,0,0-.5-.322,5.213,5.213,0,0,0-1-.067H66.481Z"/>
      <path class="c" d="M75.842,17.175l1.037.135a2.687,2.687,0,0,1-.87,1.678,2.532,2.532,0,0,1-1.72.607,2.676,2.676,0,0,1-2.054-.835,3.392,3.392,0,0,1-.776-2.394,4.319,4.319,0,0,1,.334-1.763,2.327,2.327,0,0,1,1.017-1.134,3.015,3.015,0,0,1,1.485-.378,2.581,2.581,0,0,1,1.658.513,2.346,2.346,0,0,1,.826,1.456l-1.025.158a1.708,1.708,0,0,0-.519-.944,1.339,1.339,0,0,0-.9-.316,1.637,1.637,0,0,0-1.3.571,2.714,2.714,0,0,0-.5,1.808,2.8,2.8,0,0,0,.48,1.822,1.566,1.566,0,0,0,1.254.569,1.477,1.477,0,0,0,1.037-.381A1.887,1.887,0,0,0,75.842,17.175Z"/>
      <path class="c" d="M77.333,13.231H82.39V14.1h-2v5.35H79.337V14.1h-2Z"/>
      <path class="c" d="M87.443,18.687a3.917,3.917,0,0,1-1.128.7,3.274,3.274,0,0,1-1.163.2,2.262,2.262,0,0,1-1.576-.5,1.655,1.655,0,0,1-.551-1.281,1.706,1.706,0,0,1,.208-.834,1.73,1.73,0,0,1,.545-.607,2.577,2.577,0,0,1,.759-.346,7.731,7.731,0,0,1,.938-.158,9.566,9.566,0,0,0,1.88-.363c0-.145.006-.236.006-.276a1.162,1.162,0,0,0-.3-.908,1.764,1.764,0,0,0-1.2-.357,1.858,1.858,0,0,0-1.1.261,1.59,1.59,0,0,0-.525.922l-1.031-.14a2.549,2.549,0,0,1,.463-1.069,2.02,2.02,0,0,1,.932-.627,4.142,4.142,0,0,1,1.412-.22,3.74,3.74,0,0,1,1.3.187,1.708,1.708,0,0,1,.732.472,1.655,1.655,0,0,1,.328.718,5.939,5.939,0,0,1,.053.972v1.407a14.941,14.941,0,0,0,.067,1.86,2.341,2.341,0,0,0,.267.747h-1.1A2.266,2.266,0,0,1,87.443,18.687Zm-.088-2.356a7.725,7.725,0,0,1-1.722.4,4.017,4.017,0,0,0-.92.211.926.926,0,0,0-.416.343.93.93,0,0,0,.173,1.2,1.37,1.37,0,0,0,.934.282,2.169,2.169,0,0,0,1.084-.267,1.644,1.644,0,0,0,.7-.73,2.55,2.55,0,0,0,.169-1.054Z"/>
      <path class="c" d="M90.183,13.231h2.431a4.391,4.391,0,0,1,1.333.15,1.6,1.6,0,0,1,.75.548,1.5,1.5,0,0,1,.314.955,1.568,1.568,0,0,1-.185.776,1.5,1.5,0,0,1-.554.554,1.453,1.453,0,0,1,.73.548,1.583,1.583,0,0,1,.29.952,1.676,1.676,0,0,1-.633,1.312,2.759,2.759,0,0,1-1.67.428H90.183Zm1.054,2.62h1.125a4.005,4.005,0,0,0,.926-.071.966.966,0,0,0,.451-.284.723.723,0,0,0,.2-.513.716.716,0,0,0-.348-.685A2.64,2.64,0,0,0,92.4,14.1h-1.16Zm0,2.736h1.389a2.524,2.524,0,0,0,1.23-.208.814.814,0,0,0,.352-.718.9.9,0,0,0-.193-.554.841.841,0,0,0-.5-.322,5.213,5.213,0,0,0-1-.067H91.237Z"/>
      <path class="c" d="M100.6,18.687a3.943,3.943,0,0,1-1.128.7,3.277,3.277,0,0,1-1.163.2,2.265,2.265,0,0,1-1.577-.5,1.654,1.654,0,0,1-.55-1.281,1.736,1.736,0,0,1,.753-1.441,2.56,2.56,0,0,1,.758-.346,7.731,7.731,0,0,1,.938-.158,9.6,9.6,0,0,0,1.881-.363c0-.145.006-.236.006-.276a1.166,1.166,0,0,0-.3-.908,1.767,1.767,0,0,0-1.2-.357,1.862,1.862,0,0,0-1.1.261,1.589,1.589,0,0,0-.524.922l-1.032-.14a2.549,2.549,0,0,1,.463-1.069,2.025,2.025,0,0,1,.932-.627,4.142,4.142,0,0,1,1.412-.22,3.74,3.74,0,0,1,1.295.187,1.708,1.708,0,0,1,.732.472,1.643,1.643,0,0,1,.328.718,5.824,5.824,0,0,1,.053.972v1.407a14.861,14.861,0,0,0,.068,1.86,2.314,2.314,0,0,0,.266.747h-1.1A2.221,2.221,0,0,1,100.6,18.687Zm-.088-2.356a7.736,7.736,0,0,1-1.723.4,4.031,4.031,0,0,0-.92.211.931.931,0,0,0-.416.343.908.908,0,0,0-.146.5.9.9,0,0,0,.319.7,1.371,1.371,0,0,0,.935.282,2.175,2.175,0,0,0,1.084-.267,1.647,1.647,0,0,0,.7-.73,2.547,2.547,0,0,0,.17-1.054Z"/>
      <path class="c" d="M102.5,13.231h5.057V14.1h-2v5.35H104.5V14.1h-2Z"/>
      <path class="c" d="M108.666,13.231h1.055v2.432h1.336a3.411,3.411,0,0,1,2.012.507,1.626,1.626,0,0,1,.706,1.4,1.765,1.765,0,0,1-.588,1.333,2.685,2.685,0,0,1-1.884.554h-2.637Zm1.055,5.356h1.107a3.042,3.042,0,0,0,1.43-.246.824.824,0,0,0,.428-.768.991.991,0,0,0-.317-.72,2.1,2.1,0,0,0-1.4-.317h-1.248Z"/>
      <path class="c" d="M122.569,17.175l1.037.135a2.687,2.687,0,0,1-.87,1.678,2.53,2.53,0,0,1-1.719.607,2.673,2.673,0,0,1-2.054-.835,3.388,3.388,0,0,1-.776-2.394,4.319,4.319,0,0,1,.334-1.763,2.325,2.325,0,0,1,1.016-1.134,3.015,3.015,0,0,1,1.485-.378,2.584,2.584,0,0,1,1.659.513,2.351,2.351,0,0,1,.826,1.456l-1.026.158a1.7,1.7,0,0,0-.518-.944,1.342,1.342,0,0,0-.9-.316,1.635,1.635,0,0,0-1.294.571,2.714,2.714,0,0,0-.5,1.808,2.8,2.8,0,0,0,.48,1.822,1.563,1.563,0,0,0,1.254.569,1.477,1.477,0,0,0,1.037-.381A1.892,1.892,0,0,0,122.569,17.175Z"/>
      <path class="c" d="M127.515,13.231h5.056V14.1h-2v5.35h-1.048V14.1h-2Z"/>
      <path class="c" d="M133.172,16.343a3.207,3.207,0,0,1,.961-2.561,2.894,2.894,0,0,1,1.957-.691,2.792,2.792,0,0,1,2.1.841A3.2,3.2,0,0,1,139,16.255a4.121,4.121,0,0,1-.36,1.89,2.555,2.555,0,0,1-1.049,1.069,3.053,3.053,0,0,1-1.5.381,2.8,2.8,0,0,1-2.112-.838A3.343,3.343,0,0,1,133.172,16.343Zm1.084,0a2.655,2.655,0,0,0,.521,1.79,1.736,1.736,0,0,0,2.619,0,2.712,2.712,0,0,0,.522-1.822,2.572,2.572,0,0,0-.524-1.749,1.739,1.739,0,0,0-2.617,0A2.641,2.641,0,0,0,134.256,16.343Z"/>
      <path class="c" d="M140.358,13.231h1.055v4.747l2.924-4.747h1.137v6.223h-1.055V14.737L141.5,19.454h-1.137Zm3.663-2.355h.72A1.7,1.7,0,0,1,144.205,12a1.743,1.743,0,0,1-1.192.393,1.764,1.764,0,0,1-1.2-.39,1.7,1.7,0,0,1-.536-1.128H142a.991.991,0,0,0,.325.6,1.01,1.01,0,0,0,.654.2,1.146,1.146,0,0,0,.717-.19A.976.976,0,0,0,144.021,10.876Z"/>
      <path class="c" d="M150.642,13.231H151.7v2.59h2.924v-2.59h1.055v6.223H154.62v-2.76H151.7v2.76h-1.054Z"/>
      <path class="c" d="M156.989,16.343a3.21,3.21,0,0,1,.961-2.561,2.9,2.9,0,0,1,1.957-.691,2.79,2.79,0,0,1,2.1.841,3.2,3.2,0,0,1,.814,2.323,4.121,4.121,0,0,1-.36,1.89,2.549,2.549,0,0,1-1.049,1.069,3.053,3.053,0,0,1-1.5.381,2.8,2.8,0,0,1-2.112-.838A3.348,3.348,0,0,1,156.989,16.343Zm1.084,0a2.649,2.649,0,0,0,.522,1.79,1.736,1.736,0,0,0,2.619,0,2.712,2.712,0,0,0,.521-1.822,2.567,2.567,0,0,0-.524-1.749,1.738,1.738,0,0,0-2.616,0A2.635,2.635,0,0,0,158.073,16.343Z"/>
      <path class="c" d="M164.182,13.231h3.58V14.1h-2.526v5.35h-1.054Z"/>
      <path class="c" d="M168.673,13.231h1.055v4.747l2.923-4.747h1.137v6.223h-1.055V14.737l-2.923,4.717h-1.137Z"/>
      <path class="c" d="M176.059,17.321l-.323-4.552v-1.9h1.307v1.9l-.305,4.552Zm-.276,2.133v-1.2H177v1.2Z"/>
    </g>
  </g>
</svg>
