<svg xmlns="http://www.w3.org/2000/svg" xmlns:xlink="http://www.w3.org/1999/xlink" width="28" height="28" viewBox="0 0 28 28">
  <defs>
    <style>
      .a {
        fill: url(#a);
      }

      .b {
        fill: url(#b);
      }
    </style>
    <linearGradient id="a" x1="14" y1="28" x2="14" gradientUnits="userSpaceOnUse">
      <stop offset="0" stop-color="#a52300"/>
      <stop offset="0.998" stop-color="#e63718"/>
    </linearGradient>
    <linearGradient id="b" y1="14" x2="28" y2="14" gradientUnits="userSpaceOnUse">
      <stop offset="0" stop-color="#a52800"/>
      <stop offset="0.997" stop-color="#962300"/>
    </linearGradient>
  </defs>
  <g>
    <rect class="a" width="28" height="28" rx="5"/>
    <path class="b" d="M23,.4A4.606,4.606,0,0,1,27.6,5V23A4.606,4.606,0,0,1,23,27.6H5A4.606,4.606,0,0,1,.4,23V5A4.606,4.606,0,0,1,5,.4H23M23,0H5A5,5,0,0,0,0,5V23a5,5,0,0,0,5,5H23a5,5,0,0,0,5-5V5a5,5,0,0,0-5-5Z"/>
  </g>
</svg>
