<svg xmlns="http://www.w3.org/2000/svg" width="28" height="28" viewBox="0 0 28 28">
  <defs>
    <style>
      .a {
        fill: #fbfaf8;
      }

      .b {
        fill: #e7e7e7;
      }
    </style>
  </defs>
  <g>
    <rect class="a" x="0.2" y="0.2" width="27.6" height="27.6" rx="4.8"/>
    <path class="b" d="M23,.4A4.606,4.606,0,0,1,27.6,5V23A4.606,4.606,0,0,1,23,27.6H5A4.606,4.606,0,0,1,.4,23V5A4.606,4.606,0,0,1,5,.4H23M23,0H5A5,5,0,0,0,0,5V23a5,5,0,0,0,5,5H23a5,5,0,0,0,5-5V5a5,5,0,0,0-5-5Z"/>
  </g>
</svg>
