<svg xmlns="http://www.w3.org/2000/svg" xmlns:xlink="http://www.w3.org/1999/xlink" width="78" height="40" viewBox="0 0 78 40">
  <defs>
    <style>
      .a {
        fill: url(#a);
      }

      .b {
        opacity: 0.2;
      }

      .c {
        fill: #f0f8fd;
        fill-rule: evenodd;
      }

      .d {
        fill: none;
      }
    </style>
    <linearGradient id="a" x1="39" y1="33" x2="39" gradientUnits="userSpaceOnUse">
      <stop offset="0" stop-color="#266ca0"/>
      <stop offset="0.75" stop-color="#3a8dc6"/>
      <stop offset="1" stop-color="#3b8ec9"/>
    </linearGradient>
  </defs>
  <g>
    <g>
      <path class="a" d="M7,0H71a7,7,0,0,1,7,7V33a0,0,0,0,1,0,0H0a0,0,0,0,1,0,0V7A7,7,0,0,1,7,0Z"/>
      <g class="b">
        <path class="c" d="M7,0H71a7,7,0,0,1,7,7V33H0V7A7,7,0,0,1,7,0Z"/>
      </g>
    </g>
    <rect class="d" y="33" width="78" height="7"/>
  </g>
</svg>
