<svg xmlns="http://www.w3.org/2000/svg" width="25" height="16" viewBox="0 0 25 16">
  <defs>
    <style>
      .a {
        fill: #00247d;
      }

      .b {
        fill: #fff;
      }

      .c {
        fill: #cf142b;
      }
    </style>
  </defs>
  <g>
    <path class="a" d="M0,0V16H25V0Z"/>
    <polygon class="b" points="25 0 22.518 0 12.5 6.411 2.482 0 0 0 0 1.589 10.018 8 0 14.411 0 16 2.482 16 12.5 9.589 22.518 16 25 16 25 14.411 14.982 8 25 1.589 25 0"/>
    <polygon class="c" points="13.229 7.541 25 0 23.56 0 12.5 7.072 11.771 7.541 0 0 0 0.922 11.052 8 11.771 8.459 0 16 1.44 16 12.5 8.928 13.229 8.459 25 16 25 15.078 13.948 8 13.229 7.541"/>
    <polygon class="b" points="14.693 5.755 14.693 0 10.307 0 10.307 5.755 0 5.755 0 10.245 10.307 10.245 10.307 16 14.693 16 14.693 10.245 25 10.245 25 5.755 14.693 5.755"/>
    <polygon class="c" points="13.816 6.653 13.816 0 11.184 0 11.184 6.653 0 6.653 0 9.347 11.184 9.347 11.184 16 13.816 16 13.816 9.347 25 9.347 25 6.653 13.816 6.653"/>
  </g>
</svg>
