<svg xmlns="http://www.w3.org/2000/svg" width="16" height="16" viewBox="0 0 16 16">
  <defs>
    <style>
      .a {
        fill: #f03;
      }

      .b {
        fill: #fff;
      }
    </style>
  </defs>
  <g>
    <rect class="a" width="16" height="16"/>
    <g>
      <path class="b" d="M9.569,9.916a4.191,4.191,0,0,0-.89-.889,4.25,4.25,0,0,1-.933-.845c-.49-.8.578-1.423,1.022-1.957a2.9,2.9,0,0,0-.578-4.18,4.648,4.648,0,0,0,1.112,0,5.13,5.13,0,0,0,1.067-.623H6.945a4.553,4.553,0,0,0-3.024.845A3.094,3.094,0,0,0,2.854,5.6,2.976,2.976,0,0,0,6.189,7.47a1.933,1.933,0,0,0-.178.845A2.356,2.356,0,0,0,6.5,9.382a6.39,6.39,0,0,0-3.78,1.112,2.278,2.278,0,0,0-.4,3.2,4.558,4.558,0,0,0,3.736,1.112,4.815,4.815,0,0,0,2.979-1.2,2.837,2.837,0,0,0,.534-3.691C9.391,9.738,9.7,10.094,9.569,9.916ZM6.456,7.025C4.188,7.025,3.165,2,5.789,2c1.289,0,1.868,1.423,2.09,2.535C8.057,5.6,7.835,7.025,6.456,7.025Zm2.223,6c-.756,1.29-2.846,1.156-4,.667a1.881,1.881,0,0,1-.711-3.113,3.419,3.419,0,0,1,1.823-.711,4.292,4.292,0,0,1,1.067-.045,1.661,1.661,0,0,1,.623.311c.934.667,1.912,1.69,1.2,2.891C8.546,13.3,8.813,12.762,8.679,13.029Z"/>
      <path class="b" d="M14.327,3.2H12.548V1.422h-.889V3.2H9.88V4.09h1.779V5.869h.889V4.09h1.779V3.2Z"/>
    </g>
  </g>
</svg>
