<svg xmlns="http://www.w3.org/2000/svg" xmlns:xlink="http://www.w3.org/1999/xlink" width="182" height="70" viewBox="0 0 182 70">
  <defs>
    <style>
      .a {
        fill: #5062a8;
        opacity: 0.3;
      }

      .a, .b, .c, .d, .f, .g, .h, .i, .j, .k {
        fill-rule: evenodd;
      }

      .a, .f {
        isolation: isolate;
      }

      .b {
        fill: url(#a);
      }

      .c {
        fill: url(#b);
      }

      .d {
        fill: url(#c);
      }

      .e {
        fill: url(#d);
      }

      .f, .g {
        fill: #fff;
      }

      .f {
        opacity: 0.12;
      }

      .h {
        fill: #1a78bb;
      }

      .i {
        fill: #358dc9;
      }

      .j {
        fill: #d83f26;
      }

      .k {
        fill: #ef4f31;
      }

      .l {
        fill: #b9b9b9;
      }

      .m {
        fill: none;
      }
    </style>
    <linearGradient id="a" x1="4.867" y1="3562.538" x2="54.531" y2="3597.313" gradientTransform="matrix(1, 0, 0, -1, 0, 3604)" gradientUnits="userSpaceOnUse">
      <stop offset="0" stop-color="#6e97ce"/>
      <stop offset="0.025" stop-color="#4b8ac6"/>
      <stop offset="0.055" stop-color="#1a78bb"/>
      <stop offset="0.137" stop-color="#6899d0"/>
      <stop offset="0.297" stop-color="#7dbde7"/>
      <stop offset="0.301" stop-color="#75bbe6"/>
      <stop offset="0.307" stop-color="#60b6e3"/>
      <stop offset="0.314" stop-color="#3eaede"/>
      <stop offset="0.319" stop-color="#26a8da"/>
      <stop offset="0.322" stop-color="#29a6d8"/>
      <stop offset="0.354" stop-color="#3f94cc"/>
      <stop offset="0.391" stop-color="#5087c2"/>
      <stop offset="0.437" stop-color="#5b7ebb"/>
      <stop offset="0.502" stop-color="#6278b7"/>
      <stop offset="0.681" stop-color="#6477b6"/>
      <stop offset="0.934" stop-color="#1e80c1"/>
      <stop offset="1" stop-color="#4caadf"/>
    </linearGradient>
    <linearGradient id="b" x1="-1.689" y1="3565.693" x2="43.116" y2="3597.065" gradientTransform="matrix(1, 0, 0, -1, 0, 3604)" gradientUnits="userSpaceOnUse">
      <stop offset="0.621" stop-color="#d32a31"/>
      <stop offset="0.709" stop-color="#d83727"/>
      <stop offset="0.718" stop-color="#cf3a27"/>
      <stop offset="0.733" stop-color="#c83c27"/>
      <stop offset="0.775" stop-color="#c63d27"/>
      <stop offset="1" stop-color="#d32a31"/>
    </linearGradient>
    <linearGradient id="c" x1="17.765" y1="3562.834" x2="62.236" y2="3593.972" gradientTransform="matrix(1, 0, 0, -1, 0, 3604)" gradientUnits="userSpaceOnUse">
      <stop offset="0" stop-color="#d93a27"/>
      <stop offset="0.115" stop-color="#d32a31"/>
      <stop offset="0.223" stop-color="#da4d28"/>
      <stop offset="0.242" stop-color="#db5426"/>
      <stop offset="0.418" stop-color="#df6426"/>
      <stop offset="0.45" stop-color="#e4783a"/>
      <stop offset="0.501" stop-color="#e99155"/>
      <stop offset="0.547" stop-color="#eda164"/>
      <stop offset="0.582" stop-color="#eea66a"/>
      <stop offset="0.605" stop-color="#eda062"/>
      <stop offset="0.64" stop-color="#e88e4d"/>
      <stop offset="0.682" stop-color="#e2712b"/>
      <stop offset="0.687" stop-color="#e16d26"/>
      <stop offset="1" stop-color="#d32a31"/>
    </linearGradient>
    <radialGradient id="d" cx="229.902" cy="2699.07" fy="2690.853748060356" r="13.955" gradientTransform="matrix(1.096, 0.024, 0.016, -0.779, -267.512, 2125.32)" gradientUnits="userSpaceOnUse">
      <stop offset="0.075" stop-color="#41a3c8"/>
      <stop offset="0.347" stop-color="#317db3"/>
      <stop offset="0.61" stop-color="#255fa2"/>
      <stop offset="0.758" stop-color="#20549c"/>
      <stop offset="0.857" stop-color="#1f589e"/>
      <stop offset="0.946" stop-color="#1e62a6"/>
      <stop offset="1" stop-color="#1c6dad"/>
    </radialGradient>
  </defs>
  <g>
    <g>
      <g>
        <g>
          <path class="a" d="M48.505.827c-6.977-2.4-16.332.73-23.862,5.427,7.6-2.05,15.046-2.448,19.841-.4,8.911,3.107,6.4,12.607-.155,20.956C55.279,16.686,57.18,3.856,48.505.827Z"/>
          <path class="b" d="M14.623,42.783C8.986,40.606,8.245,34.975,9.8,29.841c.241-.433.386-1.066,1.04-2.458-6.3,8.4-6.789,17.607-.136,20.179,8.471,3.229,21.075-2.624,28.642-9.136C24.676,46.945,17.855,44.3,14.623,42.783ZM48.505.827c-6.977-2.4-16.332.73-23.862,5.427,7.6-2.05,15.046-2.448,19.841-.4,8.911,3.107,6.4,12.607-.155,20.956C55.279,16.686,57.18,3.856,48.505.827Z"/>
          <path class="c" d="M44.169,8.439c-8.573-4.608-24.8,1.1-36.7,13.909C-1.5,33.2-2.076,41.088,4.051,45.382-3.47,33.372,23.532,3.607,44.169,8.439Z"/>
          <path class="d" d="M57.179,3.348c2.6,9.549-6.139,18.538-10.685,22.984C35.919,37.217,24.027,40.712,16.559,39.443c7,4.544,24.1-1.675,34.395-12.275C61.723,16.041,61.705,6.82,57.179,3.348Z"/>
          <ellipse class="e" cx="24.715" cy="26.812" rx="12.87" ry="9.245" transform="translate(-10.39 16.944) rotate(-31.629)"/>
          <path class="f" d="M36.7,23.248A6.8,6.8,0,0,0,33.313,17.8a6.273,6.273,0,0,1,2.293,4.461C36,27.242,31.371,32.842,25.3,34.733s-11.354-.624-11.751-5.6a9.1,9.1,0,0,1,.88-4.463,10.4,10.4,0,0,0-1.557,6c.426,5.376,6.128,8.092,12.692,6.049S37.123,28.624,36.7,23.248Z"/>
          <path class="g" d="M27.883,20.1a.669.669,0,1,1-.711-.626.669.669,0,0,1,.711.626Z"/>
        </g>
        <g>
          <path class="h" d="M72.3,33.06,69.065,48.332H76.78L80.015,33.06Zm10.087,0L79.152,48.332h7.714L90.1,33.06Zm-21.132,0L58.02,48.332h8.045L69.3,33.06ZM89.808,48.332h7.718l3.233-15.272H93.044ZM113.8,33.06l-1.826,8.6a7.336,7.336,0,0,1-.669,2.144,1.122,1.122,0,0,1-1.011.5c-.442,0-.7-.182-.778-.548a7.242,7.242,0,0,1,.261-2.343l1.772-8.347h-7.712l-1.25,5.861a20.809,20.809,0,0,0-.605,4.843,5.386,5.386,0,0,0,.826,2.753,4.448,4.448,0,0,0,2.4,1.7,13.21,13.21,0,0,0,4.218.562,12.641,12.641,0,0,0,4.2-.66,8.859,8.859,0,0,0,3.319-2.04,9.229,9.229,0,0,0,2.1-2.987,29.142,29.142,0,0,0,1.4-5.021l1.072-5.024Z"/>
          <path class="i" d="M64.548,17.375l-3.412,16.2h8.045L72.6,17.375Zm40.039,6.2h-3.242l.169-.8q.218-1.029.7-1.253a10.164,10.164,0,0,1,2.863-.223l.827-3.915h-2.831a15.937,15.937,0,0,0-3.878.345,5.584,5.584,0,0,0-2.109,1,3.827,3.827,0,0,0-1.167,1.5,23.312,23.312,0,0,0-.878,3.35H93.453l-.846,4.012H94.19L92.927,33.57h7.714l1.265-5.988h1.838Zm-17.5-1.07a6.408,6.408,0,0,0-2.95.7,7.782,7.782,0,0,0-2.487,2.09l.624-2.336H74.421L72.18,33.57H79.9l.505-2.389a18.047,18.047,0,0,1,.951-3.524,1.214,1.214,0,0,1,1.172-.666c.522,0,.8.2.83.574a16.541,16.541,0,0,1-.5,3.2l-.6,2.809h7.713l.638-3.025a21.94,21.94,0,0,0,.645-4.751,3.19,3.19,0,0,0-1.126-2.356A4.458,4.458,0,0,0,87.087,22.5Zm35.156,5.351a5.767,5.767,0,0,0-.848-2.558,5.284,5.284,0,0,0-2.45-2.016,10.37,10.37,0,0,0-4.3-.777,11.119,11.119,0,0,0-5.333,1.207A8.615,8.615,0,0,0,105.89,26.9a18.392,18.392,0,0,0-1.928,5.522l-.241,1.15h7.711l.763-3.611a8.641,8.641,0,0,1,.754-2.462,1.134,1.134,0,0,1,1.019-.508q.685,0,.8.508a8.563,8.563,0,0,1-.311,2.462l-.762,3.611h7.72l.36-1.7a16.094,16.094,0,0,0,.472-4.024Z"/>
          <path class="j" d="M140.251,33.193l-15.918-.249-3.282,15.388H129.1l2.945-13.962q1.655,0,1.923.6a6.922,6.922,0,0,1-.255,3.086l-2.169,10.286h7.466l1.723-8.163a29.446,29.446,0,0,0,.765-4.58,3.769,3.769,0,0,0-.633-1.821A5.726,5.726,0,0,0,140.251,33.193Zm12.795,8.468a7.213,7.213,0,0,1-.676,2.144,1.117,1.117,0,0,1-1.01.5c-.442,0-.705-.182-.777-.548a7.187,7.187,0,0,1,.26-2.343l1.79-8.462h-7.714l-1.267,5.976a20.807,20.807,0,0,0-.6,4.843,5.383,5.383,0,0,0,.826,2.753,4.448,4.448,0,0,0,2.4,1.7,13.2,13.2,0,0,0,4.217.562,12.665,12.665,0,0,0,4.2-.66,8.851,8.851,0,0,0,3.319-2.04,9.3,9.3,0,0,0,2.1-2.987,29.713,29.713,0,0,0,1.4-5.021l1.094-5.14h-7.722ZM179.67,36.61a10.339,10.339,0,0,0-4.151-3.293l-10.42-.083c.009.044.043.414.055.457q.413,1.567,3.412,3.474a27.235,27.235,0,0,1,3.921,2.713c.215.308.191,1.065-.063,2.278a3.693,3.693,0,0,1-.7,1.731,1.68,1.68,0,0,1-1.235.411c-.51,0-.806-.2-.888-.612a8.256,8.256,0,0,1,.3-2.658l.339-1.606H163.4l-.259,1.22a10.617,10.617,0,0,0-.218,4.746,4.073,4.073,0,0,0,2.351,2.489,11.193,11.193,0,0,0,4.841.914,12.258,12.258,0,0,0,4.717-.848,7.229,7.229,0,0,0,3.2-2.429,12.559,12.559,0,0,0,1.79-4.673A6.542,6.542,0,0,0,179.67,36.61Z"/>
          <path class="k" d="M162.46,25.287a5.29,5.29,0,0,0-2.45-2.016,10.366,10.366,0,0,0-4.3-.777A11.121,11.121,0,0,0,150.38,23.7a8.6,8.6,0,0,0-3.425,3.193,18.392,18.392,0,0,0-1.928,5.522l-.244,1.15H152.5l.761-3.611a8.661,8.661,0,0,1,.756-2.461,1.133,1.133,0,0,1,1.02-.509c.456,0,.722.169.8.509a8.6,8.6,0,0,1-.312,2.461l-.767,3.615h7.722l.359-1.7a16.035,16.035,0,0,0,.476-4.022A5.769,5.769,0,0,0,162.46,25.287ZM140.9,17.808a41.728,41.728,0,0,0-7.615-.437H127.59l-3.417,16.2H140.7a5.156,5.156,0,0,0-2.711-1.4,5.83,5.83,0,0,0,3.847-1.487q1.162-1.245,1.926-4.858.835-3.963-.056-5.769a4,4,0,0,0-2.81-2.245Zm-4.438,7.25-.359,1.7q-.432,2.046-1.057,2.422a4.01,4.01,0,0,1-1.977.372l1.453-6.887a2.558,2.558,0,0,1,1.819.463c.287.312.328.953.121,1.936Zm44.8-.234a4.969,4.969,0,0,0-2.356-1.692,11.5,11.5,0,0,0-4.148-.64,13.079,13.079,0,0,0-4.627.783,7,7,0,0,0-3.194,2.227,11.333,11.333,0,0,0-1.748,4.48,8.09,8.09,0,0,0-.06,3.584h10.881c-.036-.02-.063-.04-.1-.06a15.565,15.565,0,0,1-2.934-1.892,2.038,2.038,0,0,1-.725-1.2,6.659,6.659,0,0,1,.2-1.71,2.608,2.608,0,0,1,.6-1.294,1.416,1.416,0,0,1,1.07-.43q.8,0,.9.47a7.318,7.318,0,0,1-.269,2.232l-.289,1.372H181.3l.31-1.47A14.305,14.305,0,0,0,182,26.781a3.554,3.554,0,0,0-.736-1.953Z"/>
        </g>
      </g>
      <g>
        <path class="l" d="M1.716,54.566h.6v3.989l2.623-3.989h.656V59.6H5V55.621L2.368,59.6H1.716Z"/>
        <path class="l" d="M10.446,59.6V54.566H11.1v2.068h2.563V54.566h.653V59.6h-.653V57.229H11.1V59.6Z"/>
        <path class="l" d="M20.95,55.171v-.646h.612v.646a2.222,2.222,0,0,1,1.491.579,1.747,1.747,0,0,1,.545,1.311,1.781,1.781,0,0,1-.528,1.3,2.2,2.2,0,0,1-1.5.59v.65h-.612v-.65A2.27,2.27,0,0,1,19.5,58.41a1.855,1.855,0,0,1-.075-2.621q.036-.039.075-.075A2.3,2.3,0,0,1,20.95,55.171Zm0,.573a1.521,1.521,0,0,0-.985.368,1.382,1.382,0,0,0,0,1.891,1.5,1.5,0,0,0,.994.372Zm.612,0v2.639a1.5,1.5,0,0,0,.994-.375,1.407,1.407,0,0,0,.006-1.881,1.519,1.519,0,0,0-1-.386Z"/>
        <path class="l" d="M27.973,57.15a2.768,2.768,0,0,1,.66-1.963,2.217,2.217,0,0,1,1.7-.71,2.325,2.325,0,0,1,1.232.334,2.161,2.161,0,0,1,.835.928,3.082,3.082,0,0,1,.287,1.352,3.007,3.007,0,0,1-.3,1.371,2.091,2.091,0,0,1-.857.916,2.4,2.4,0,0,1-1.194.311,2.286,2.286,0,0,1-1.244-.344,2.2,2.2,0,0,1-.831-.937A2.9,2.9,0,0,1,27.973,57.15Zm.674.01a2.039,2.039,0,0,0,.479,1.435,1.649,1.649,0,0,0,2.332.078c.029-.027.056-.055.083-.083a2.175,2.175,0,0,0,.476-1.5,2.633,2.633,0,0,0-.2-1.073,1.576,1.576,0,0,0-1.482-.959,1.647,1.647,0,0,0-1.193.486,2.2,2.2,0,0,0-.5,1.619Z"/>
        <path class="l" d="M37.3,59.6V54.566h1.86a4.486,4.486,0,0,1,.75.048,1.475,1.475,0,0,1,.609.235,1.232,1.232,0,0,1,.4.487,1.668,1.668,0,0,1-.251,1.774,1.885,1.885,0,0,1-1.446.445H37.95V59.6Zm.652-2.642h1.275a1.328,1.328,0,0,0,.895-.241.865.865,0,0,0,.266-.677.924.924,0,0,0-.156-.54.735.735,0,0,0-.412-.3,2.71,2.71,0,0,0-.61-.045H37.95Z"/>
        <path class="l" d="M45.563,59.6V54.566h.984l1.167,3.567c.108.331.186.58.235.744.057-.182.143-.452.263-.807l1.18-3.5h.878V59.6h-.629V55.387L48.209,59.6H47.62l-1.426-4.288V59.6Z"/>
        <path class="l" d="M54.547,59.6l1.894-5.037h.7L59.161,59.6h-.743l-.574-1.526H55.782L55.24,59.6Zm1.423-2.069h1.672l-.515-1.393q-.236-.634-.349-1.045a6.526,6.526,0,0,1-.266.962Z"/>
        <path class="l" d="M63.454,54.566h.653v4.443h2.569V54.566h.656v4.443h.451V61H67.2V59.606h-3.75Z"/>
        <path class="l" d="M72.324,54.566h.6v3.989l2.623-3.989H76.2V59.6h-.591V55.621L72.98,59.6h-.652Z"/>
        <path class="l" d="M80.835,57.15a2.771,2.771,0,0,1,.659-1.963,2.215,2.215,0,0,1,1.7-.71,2.321,2.321,0,0,1,1.231.334,2.154,2.154,0,0,1,.835.928,3.066,3.066,0,0,1,.288,1.352,3.033,3.033,0,0,1-.3,1.371,2.1,2.1,0,0,1-.859.916,2.4,2.4,0,0,1-1.193.311,2.3,2.3,0,0,1-1.248-.344,2.2,2.2,0,0,1-.831-.937A2.884,2.884,0,0,1,80.835,57.15Zm.672.01a2.046,2.046,0,0,0,.48,1.435,1.649,1.649,0,0,0,2.332.078c.028-.027.056-.055.082-.083a2.171,2.171,0,0,0,.477-1.5,2.65,2.65,0,0,0-.2-1.073,1.572,1.572,0,0,0-1.475-.963,1.651,1.651,0,0,0-1.194.486A2.2,2.2,0,0,0,81.507,57.16Z"/>
        <path class="l" d="M90.179,59.6V54.566h.653v2.068H93.4V54.566h.652V59.6H93.4V57.229H90.832V59.6Z"/>
        <path class="l" d="M98.921,59.6V54.566h.653v2.068h2.566V54.566h.654V59.6h-.654V57.229H99.578V59.6Z"/>
        <path class="l" d="M107.1,59.6l1.89-5.037h.7l2.018,5.037h-.743l-.575-1.526h-2.059L107.8,59.6Zm1.423-2.069H110.2l-.515-1.393q-.235-.634-.349-1.045a6.655,6.655,0,0,1-.267.962Z"/>
        <path class="l" d="M119.255,59.6V57.366H118.5a2.008,2.008,0,0,0-.363.024.944.944,0,0,0-.3.135,1.47,1.47,0,0,0-.332.336q-.184.242-.471.7l-.652,1.048h-.816l.858-1.371a3.387,3.387,0,0,1,.542-.67,1.7,1.7,0,0,1,.4-.251,1.711,1.711,0,0,1-1.049-.467,1.285,1.285,0,0,1-.339-.9,1.448,1.448,0,0,1,.205-.76,1.1,1.1,0,0,1,.548-.479,2.838,2.838,0,0,1,1-.136h2.188v5.037Zm0-4.48H117.7a1.167,1.167,0,0,0-.8.23.761.761,0,0,0-.254.588.833.833,0,0,0,.132.451.737.737,0,0,0,.383.3,2.024,2.024,0,0,0,.7.095h1.4Z"/>
        <path class="l" d="M133.185,59.6V54.566h1.86a4.479,4.479,0,0,1,.75.048,1.466,1.466,0,0,1,.608.235,1.225,1.225,0,0,1,.4.487,1.67,1.67,0,0,1-.25,1.774,1.892,1.892,0,0,1-1.447.445H133.84V59.6Zm.653-2.642h1.275a1.329,1.329,0,0,0,.9-.241.864.864,0,0,0,.266-.677.925.925,0,0,0-.157-.54.729.729,0,0,0-.412-.3,2.692,2.692,0,0,0-.608-.045h-1.261Z"/>
        <path class="l" d="M141.2,57.15a2.771,2.771,0,0,1,.659-1.963,2.217,2.217,0,0,1,1.7-.71,2.321,2.321,0,0,1,1.231.334,2.163,2.163,0,0,1,.836.928,3.1,3.1,0,0,1,.287,1.352,3.022,3.022,0,0,1-.3,1.371,2.093,2.093,0,0,1-.858.916,2.4,2.4,0,0,1-1.193.311,2.286,2.286,0,0,1-1.244-.344,2.206,2.206,0,0,1-.832-.937A2.913,2.913,0,0,1,141.2,57.15Zm.673.01a2.044,2.044,0,0,0,.48,1.435,1.649,1.649,0,0,0,2.332.078c.028-.027.056-.055.082-.083a2.171,2.171,0,0,0,.477-1.5,2.651,2.651,0,0,0-.2-1.073,1.572,1.572,0,0,0-1.475-.963,1.647,1.647,0,0,0-1.193.486A2.2,2.2,0,0,0,141.87,57.16Z"/>
        <path class="l" d="M154.039,57.842l.654.168a2.265,2.265,0,0,1-.738,1.253,2.019,2.019,0,0,1-1.3.431,2.307,2.307,0,0,1-1.293-.332,2.063,2.063,0,0,1-.76-.96,3.5,3.5,0,0,1-.26-1.35,3,3,0,0,1,.3-1.372,2.032,2.032,0,0,1,.837-.9,2.419,2.419,0,0,1,1.194-.3,1.905,1.905,0,0,1,1.947,1.468l-.642.154a1.571,1.571,0,0,0-.5-.8,1.306,1.306,0,0,0-.821-.25,1.56,1.56,0,0,0-.95.278,1.467,1.467,0,0,0-.536.747,3.06,3.06,0,0,0-.155.968,3.108,3.108,0,0,0,.184,1.121,1.38,1.38,0,0,0,.569.716,1.566,1.566,0,0,0,.837.237,1.391,1.391,0,0,0,.929-.322A1.669,1.669,0,0,0,154.039,57.842Z"/>
        <path class="l" d="M162.782,57.842l.652.168a2.248,2.248,0,0,1-.738,1.253,2.009,2.009,0,0,1-1.3.431,2.3,2.3,0,0,1-1.293-.332,2.061,2.061,0,0,1-.761-.96,3.515,3.515,0,0,1-.261-1.35,3.025,3.025,0,0,1,.3-1.372,2.037,2.037,0,0,1,.837-.9,2.419,2.419,0,0,1,1.194-.3,1.905,1.905,0,0,1,1.947,1.468l-.643.154a1.555,1.555,0,0,0-.5-.8,1.3,1.3,0,0,0-.82-.25,1.563,1.563,0,0,0-.951.278,1.467,1.467,0,0,0-.536.747,3.059,3.059,0,0,0-.154.968,3.129,3.129,0,0,0,.183,1.121,1.387,1.387,0,0,0,.57.716,1.557,1.557,0,0,0,.837.237,1.393,1.393,0,0,0,.929-.322A1.665,1.665,0,0,0,162.782,57.842Z"/>
        <path class="l" d="M168.016,54.566h.6v3.989l2.623-3.989h.656V59.6H171.3V55.621L168.672,59.6h-.652Z"/>
        <path class="l" d="M179.974,59.6V57.366h-.759a2.008,2.008,0,0,0-.363.024.944.944,0,0,0-.3.135,1.491,1.491,0,0,0-.332.336q-.185.242-.471.7l-.652,1.048h-.82l.857-1.371a3.387,3.387,0,0,1,.542-.67,1.682,1.682,0,0,1,.4-.251,1.708,1.708,0,0,1-1.049-.467,1.285,1.285,0,0,1-.339-.9,1.448,1.448,0,0,1,.205-.76,1.1,1.1,0,0,1,.548-.479,2.84,2.84,0,0,1,1-.136h2.188v5.037Zm0-4.48h-1.56a1.167,1.167,0,0,0-.8.23.756.756,0,0,0-.253.588.823.823,0,0,0,.131.451.737.737,0,0,0,.383.3,2.027,2.027,0,0,0,.7.095h1.4Z"/>
      </g>
    </g>
    <rect class="m" width="182" height="70"/>
  </g>
</svg>
