<svg xmlns="http://www.w3.org/2000/svg" width="32" height="32" viewBox="0 0 32 32">
  <defs>
    <style>
      .a {
        fill: #dc1400;
      }

      .b {
        fill: #fff;
      }
    </style>
  </defs>
  <g>
    <circle class="a" cx="16" cy="16" r="16"/>
    <g>
      <path class="b" d="M9.81,23.129H7.788V12.891A7.006,7.006,0,0,1,5.169,14.95V12.485A5.65,5.65,0,0,0,6.918,11.14,5.326,5.326,0,0,0,8.175,8.908H9.81Z"/>
      <path class="b" d="M18.931,12.427l-1.96.29q-.141-1.575-1.156-1.576a1.269,1.269,0,0,0-1.1.793,8.489,8.489,0,0,0-.551,3.2,2.833,2.833,0,0,1,.846-.9,1.861,1.861,0,0,1,1.029-.3,2.653,2.653,0,0,1,2.166,1.27,5.615,5.615,0,0,1,.925,3.376,5.645,5.645,0,0,1-.977,3.515,2.946,2.946,0,0,1-2.42,1.275,3.054,3.054,0,0,1-2.627-1.657q-1.043-1.656-1.043-5.492,0-3.894,1.082-5.6a3.21,3.21,0,0,1,2.782-1.71,2.586,2.586,0,0,1,1.975.872A4.68,4.68,0,0,1,18.931,12.427Zm-4.588,5.931a3.815,3.815,0,0,0,.454,2.051,1.268,1.268,0,0,0,1.036.71,1.1,1.1,0,0,0,.938-.589,3.736,3.736,0,0,0,.375-1.93,3.894,3.894,0,0,0-.405-2.027,1.11,1.11,0,0,0-1.993-.029A3.3,3.3,0,0,0,14.343,18.358Z"/>
      <path class="b" d="M23.634,20.378V17.215H20.446V15.032h3.188V11.87h2.125v3.162h3.2v2.183h-3.2v3.163Z"/>
    </g>
  </g>
</svg>
