<svg xmlns="http://www.w3.org/2000/svg" width="32" height="32" viewBox="0 0 32 32">
  <defs>
    <style>
      .a {
        fill: #dc1400;
      }

      .b {
        fill: #fff;
      }
    </style>
  </defs>
  <g>
    <circle class="a" cx="16" cy="16" r="16"/>
    <path class="b" d="M7.223,11.14a5.65,5.65,0,0,1-1.749,1.345V14.95a7.006,7.006,0,0,0,2.619-2.059V23.129h2.021V8.908H8.479A5.313,5.313,0,0,1,7.223,11.14Zm10.262,4.337a2.765,2.765,0,0,0,1.068-1.153,3.86,3.86,0,0,0,.391-1.789,4.1,4.1,0,0,0-.808-2.571A2.786,2.786,0,0,0,15.78,8.908a2.921,2.921,0,0,0-2.32.988,3.907,3.907,0,0,0-.861,2.658,3.821,3.821,0,0,0,.376,1.765,2.772,2.772,0,0,0,1.119,1.158,3.209,3.209,0,0,0-1.3,1.4,4.882,4.882,0,0,0-.455,2.193,4.657,4.657,0,0,0,1,3.136,3.185,3.185,0,0,0,2.527,1.164,3.056,3.056,0,0,0,1.758-.531A3.527,3.527,0,0,0,18.844,21.3a5.7,5.7,0,0,0,.443-2.319,4.675,4.675,0,0,0-.448-2.15A3.135,3.135,0,0,0,17.485,15.477Zm-2.61-3.966a1.133,1.133,0,0,1,.923-.447,1.1,1.1,0,0,1,.891.442,1.92,1.92,0,0,1,.357,1.24,1.966,1.966,0,0,1-.36,1.269,1.13,1.13,0,0,1-.915.442,1.1,1.1,0,0,1-.9-.442,1.977,1.977,0,0,1-.356-1.269A1.918,1.918,0,0,1,14.875,11.511Zm1.98,9.087a1.237,1.237,0,0,1-1.035.588,1.28,1.28,0,0,1-1.058-.617,2.991,2.991,0,0,1-.441-1.756,2.645,2.645,0,0,1,.428-1.578,1.226,1.226,0,0,1,2.1,0,2.672,2.672,0,0,1,.427,1.6A3.042,3.042,0,0,1,16.855,20.6Zm9.1-5.566V11.87H23.83v3.162H20.643v2.183H23.83v3.163h2.125V17.215h3.2V15.032Z"/>
  </g>
</svg>
