<svg xmlns="http://www.w3.org/2000/svg" width="16" height="16" viewBox="0 0 16 16">
  <defs>
    <style>
      .a {
        fill: #61a8d9;
      }

      .b {
        fill: #fff;
      }
    </style>
  </defs>
  <g>
    <rect class="a" width="16" height="16"/>
    <path class="b" d="M12.834,7.523a1.515,1.515,0,0,0,1.361-.81,2.237,2.237,0,0,1-1.473.163c-.022-.1-.045-.2-.069-.286A2.687,2.687,0,0,0,10,4.515c.1-.039.194-.075.291-.107.13-.047.9-.172.776-.442-.1-.238-1.038.179-1.214.234.232-.088.617-.238.658-.506a1.865,1.865,0,0,0-.977.463.671.671,0,0,0,.188-.371A5.988,5.988,0,0,0,7.769,6.807a4.662,4.662,0,0,0-.947-.761A24.648,24.648,0,0,0,3.615,4.634,1.7,1.7,0,0,0,4.684,6.206a2.606,2.606,0,0,0-.769.092c.107.56.455,1.022,1.4,1.245a1.148,1.148,0,0,0-.857.338A1.449,1.449,0,0,0,6,8.635c-.959.414-.391,1.18.389,1.065a3.314,3.314,0,0,1-4.636.124C4.9,14.113,11.739,12.361,12.759,8.23a1.894,1.894,0,0,0,1.491-.564A3.036,3.036,0,0,1,12.834,7.523Z"/>
  </g>
</svg>
