<svg xmlns="http://www.w3.org/2000/svg" width="16" height="16" viewBox="0 0 16 16">
  <defs>
    <style>
      .a {
        fill: #155e8b;
      }

      .b {
        fill: #fff;
      }
    </style>
  </defs>
  <g>
    <rect class="a" width="16" height="16"/>
    <path class="b" d="M12.652,9.506a10.585,10.585,0,0,1,1.261,1.46.071.071,0,0,1,.011.022.427.427,0,0,1,.077.4.678.678,0,0,1-.467.252H11.748a1.243,1.243,0,0,1-.7-.25,4.306,4.306,0,0,1-.712-.716c-.347-.4-.646-.75-.949-.75a.335.335,0,0,0-.113.019c-.229.072-.52.4-.52,1.27a.411.411,0,0,1-.366.427H7.572a4.411,4.411,0,0,1-3.017-1.454A21.042,21.042,0,0,1,1.548,5.166c-.088-.216.1-.334.3-.334h1.8a.374.374,0,0,1,.376.278,11.967,11.967,0,0,0,.687,1.43c.628,1.1,1.013,1.549,1.321,1.549A.333.333,0,0,0,6.2,8.046c.4-.222.328-1.659.309-1.955A1.916,1.916,0,0,0,6.3,5.166a.891.891,0,0,0-.55-.31.639.639,0,0,1,.237-.2A3.329,3.329,0,0,1,7.255,4.5H7.53a3.047,3.047,0,0,1,.87.091c.392.094.4.348.365,1.214-.01.248-.02.527-.02.855,0,.07,0,.148,0,.227-.011.445-.027.945.287,1.151a.256.256,0,0,0,.135.039c.109,0,.435,0,1.318-1.516a11.408,11.408,0,0,0,.708-1.518.45.45,0,0,1,.134-.164.3.3,0,0,1,.147-.035h2.122c.231,0,.388.035.419.123.051.142-.01.575-.979,1.885-.163.218-.306.407-.432.572-.878,1.152-.878,1.21.052,2.085Z"/>
  </g>
</svg>
